HIERARCHY
ROOT Hips
{
	OFFSET 0.000000 0.000000 0.000000
	CHANNELS 6 Xposition Yposition Zposition Zrotation Yrotation Xrotation 
	JOINT LHipJoint
	{
		OFFSET 0.000000 0.000000 0.000000
		CHANNELS 3 Zrotation Yrotation Xrotation
		JOINT LeftUpLeg
		{
			OFFSET 1.363060 -1.794630 0.839290
			CHANNELS 3 Zrotation Yrotation Xrotation
			JOINT LeftLeg
			{
				OFFSET 2.448110 -6.726130 0.000000
				CHANNELS 3 Zrotation Yrotation Xrotation
				JOINT LeftFoot
				{
					OFFSET 2.562200 -7.039590 0.000000
					CHANNELS 3 Zrotation Yrotation Xrotation
					JOINT LeftToeBase
					{
						OFFSET 0.157640 -0.433110 2.322550
						CHANNELS 3 Zrotation Yrotation Xrotation
						End Site
						{
							OFFSET 0.000000 0.000000 0.000000
						}
					}
				}
			}
		}
	}
	JOINT RHipJoint
	{
		OFFSET 0.000000 0.000000 0.000000
		CHANNELS 3 Zrotation Yrotation Xrotation
		JOINT RightUpLeg
		{
			OFFSET -1.305520 -1.794630 0.839290
			CHANNELS 3 Zrotation Yrotation Xrotation
			JOINT RightLeg
			{
				OFFSET -2.542530 -6.985550 0.000000
				CHANNELS 3 Zrotation Yrotation Xrotation
				JOINT RightFoot
				{
					OFFSET -2.568260 -7.056230 0.000000
					CHANNELS 3 Zrotation Yrotation Xrotation
					JOINT RightToeBase
					{
						OFFSET -0.164730 -0.452590 2.363150
						CHANNELS 3 Zrotation Yrotation Xrotation
						End Site
						{
							OFFSET 0.000000 0.000000 0.000000
						}
					}
				}
			}
		}
	}
	JOINT LowerBack
	{
		OFFSET 0.000000 0.000000 0.000000
		CHANNELS 3 Zrotation Yrotation Xrotation
		JOINT Spine
		{
			OFFSET 0.028270 2.035590 -0.193380
			CHANNELS 3 Zrotation Yrotation Xrotation
			JOINT Spine1
			{
				OFFSET 0.056720 2.048850 -0.042750
				CHANNELS 3 Zrotation Yrotation Xrotation
				JOINT Neck
				{
					OFFSET 0.000000 0.000000 0.000000
					CHANNELS 3 Zrotation Yrotation Xrotation
					JOINT Neck1
					{
						OFFSET -0.054170 1.746240 0.172020
						CHANNELS 3 Zrotation Yrotation Xrotation
						JOINT Head
						{
							OFFSET 0.104070 1.761360 -0.123970
							CHANNELS 3 Zrotation Yrotation Xrotation
							End Site
							{
								OFFSET 0.000000 0.000000 0.000000
							}
						}
					}
				}
				JOINT LeftShoulder
				{
					OFFSET 0.000000 0.000000 0.000000
					CHANNELS 3 Zrotation Yrotation Xrotation
					JOINT LeftArm
					{
						OFFSET 3.362410 1.200890 -0.311210
						CHANNELS 3 Zrotation Yrotation Xrotation
						JOINT LeftForeArm
						{
							OFFSET 4.983000 -0.000000 -0.000000
							CHANNELS 3 Zrotation Yrotation Xrotation
							JOINT LeftHand
							{
								OFFSET 3.483560 -0.000000 -0.000000
								CHANNELS 3 Zrotation Yrotation Xrotation
								JOINT LeftFingerBase
								{
									OFFSET 0.000000 0.000000 0.000000
									CHANNELS 3 Zrotation Yrotation Xrotation
									JOINT LeftHandIndex1
									{
										OFFSET 0.715260 -0.000000 -0.000000
										CHANNELS 3 Zrotation Yrotation Xrotation
										End Site
										{
											OFFSET 0.000000 0.000000 0.000000
										}
									}
								}
								JOINT LThumb
								{
									OFFSET 0.000000 0.000000 0.000000
									CHANNELS 3 Zrotation Yrotation Xrotation
									End Site
									{
										OFFSET 0.000000 0.000000 0.000000
									}
								}
							}
						}
					}
				}
				JOINT RightShoulder
				{
					OFFSET 0.000000 0.000000 0.000000
					CHANNELS 3 Zrotation Yrotation Xrotation
					JOINT RightArm
					{
						OFFSET -3.136600 1.374050 -0.404650
						CHANNELS 3 Zrotation Yrotation Xrotation
						JOINT RightForeArm
						{
							OFFSET -5.241900 -0.000000 -0.000000
							CHANNELS 3 Zrotation Yrotation Xrotation
							JOINT RightHand
							{
								OFFSET -3.444170 -0.000000 -0.000000
								CHANNELS 3 Zrotation Yrotation Xrotation
								JOINT RightFingerBase
								{
									OFFSET 0.000000 0.000000 0.000000
									CHANNELS 3 Zrotation Yrotation Xrotation
									JOINT RightHandIndex1
									{
										OFFSET -0.622530 -0.000000 -0.000000
										CHANNELS 3 Zrotation Yrotation Xrotation
										End Site
										{
											OFFSET 0.000000 0.000000 0.000000
										}
									}
								}
								JOINT RThumb
								{
									OFFSET 0.000000 0.000000 0.000000
									CHANNELS 3 Zrotation Yrotation Xrotation
									End Site
									{
										OFFSET 0.000000 0.000000 0.000000
									}
								}
							}
						}
					}
				}
			}
		}
	}
}
MOTION
Frames: 4
Frame Time: 0.008333
-0.830095 17.558011 -50.335953 -1.349003 1.961651 19.546776 -1.915420 -3.049226 -2.344508 -12.256588 -5.322383 -27.750273 12.780786 19.537891 69.659535 0.447940 -3.638842 13.837725 0.070600 -1.714500 -4.717400 0.105899 2.488913 -3.419218 18.080727 8.458018 -39.584287 -2.331300 -13.522735 36.507025 -1.470210 7.212981 -5.203765 -0.617500 5.029200 -13.992000 5.529737 0.177546 -8.027584 2.041684 -1.120562 -9.067437 -0.810021 -0.261416 0.242548 -0.186636 -1.014863 -9.478043 0.897209 -1.263566 9.547203 -1.715400 -0.509700 3.109500 13.638756 7.665981 -0.331822 -99.783632 2.494339 25.403425 20.720302 -38.692904 -7.120563 -0.180073 -0.579923 -5.849934 23.039035 -18.466334 -7.503300 -7.125000 0.000000 0.000000 -3.100000 10.709600 2.473700 -13.513113 -6.806333 0.781793 100.299779 -9.198151 -35.454680 -3.379202 12.021146 -0.099841 -1.425814 0.143425 40.752304 -21.686186 -34.041355 11.656000 7.125000 0.000000 0.000000 15.338500 -64.572900 -7.349200 
-0.828255 17.601097 -50.090974 -1.298230 1.108413 19.198153 -1.911959 -3.090843 -2.445549 -12.445486 -4.864948 -28.747127 12.928115 19.627259 70.079358 0.395550 -3.438848 12.937101 0.024000 -0.999700 -2.748000 0.186252 2.471192 -3.359425 18.095675 8.712267 -38.007079 -2.265234 -13.382497 36.193706 -1.532081 7.349164 -5.699900 -0.551500 4.757100 -13.217100 5.122200 0.376781 -8.390288 2.104551 -0.874244 -8.882516 -0.195867 -0.070696 0.807299 -0.821454 -0.996545 -9.004516 0.857688 -1.186353 9.600825 -1.602100 -0.481400 2.976100 13.707857 7.766455 -0.232196 -100.619013 3.104474 24.859810 19.550655 -37.532091 -6.487315 -0.211479 -0.604278 -4.869414 22.681470 -18.643401 -7.443200 -7.125000 0.000000 0.000000 -3.330400 10.599800 2.665600 -13.556145 -6.901759 0.725592 99.798624 -8.017691 -31.730980 -3.371665 12.282044 -0.104317 -1.448858 0.086979 38.589497 -21.890305 -34.166451 11.806500 7.125000 0.000000 0.000000 15.218700 -64.738300 -7.348900 
-0.855102 17.622531 -49.912570 -0.696862 1.477364 19.302470 -1.860361 -3.143673 -2.583497 -12.811873 -5.531005 -30.560306 13.016135 19.726362 70.343091 0.353435 -3.363994 12.116411 0.265100 -3.312500 -9.150000 0.230422 2.512720 -3.300473 17.610980 8.465623 -37.340093 -2.214173 -13.268055 35.938249 -1.501701 6.789273 -6.122969 -0.508100 4.569400 -12.684300 4.239282 0.061968 -8.262744 2.121288 -1.107396 -8.967572 0.135483 -0.167145 0.541147 -0.995543 -0.924741 -8.620544 0.866690 -1.093268 9.650365 -1.568600 -0.433600 2.928900 13.715584 7.806175 -0.191862 -100.738120 3.814583 24.708882 18.496631 -36.378338 -5.936191 -0.225797 -0.620301 -4.513490 22.136227 -18.271137 -7.103300 -7.125000 0.000000 0.000000 -3.651600 11.086200 2.887300 -13.567277 -6.919832 0.674424 99.886585 -6.972857 -28.275452 -3.452800 12.681432 -0.141983 -1.460168 0.019900 36.530602 -21.965093 -34.004060 11.797100 7.125000 0.000000 0.000000 14.967800 -64.582800 -7.171100 
-0.840596 17.673411 -49.644640 -0.685583 0.460804 18.822160 -1.861083 -3.161005 -2.645606 -13.100586 -4.815211 -31.085833 13.046535 19.758754 70.376644 0.227791 -2.372620 11.033655 0.100500 -2.044700 -5.629100 0.363111 2.470256 -3.206496 17.644870 8.527668 -35.548650 -2.140719 -13.106641 35.565876 -1.629309 7.276157 -6.725557 -0.430000 4.208100 -11.662800 4.295638 0.510885 -8.139394 1.939972 -0.513480 -8.827797 -0.214467 0.096884 0.800432 -0.686259 -1.101896 -8.863570 0.718045 -1.317879 9.923599 -1.720300 -0.536200 3.110800 13.729455 7.854683 -0.152892 -100.623990 4.476628 24.949098 17.439359 -35.193964 -5.414046 -0.242202 -0.631536 -4.033306 21.342208 -17.506908 -6.543800 -7.125000 0.000000 0.000000 -4.116300 12.008000 3.178300 -13.644331 -6.958396 0.650472 100.171131 -6.034729 -24.010901 -3.621064 13.402515 -0.210951 -1.492741 -0.105565 33.371770 -22.061196 -34.131315 11.874000 7.125000 0.000000 0.000000 14.920300 -64.675300 -7.179900 
